<?xml version="1.0" standalone="no"?>
<!DOCTYPE svg PUBLIC "-//W3C//DTD SVG 20010904//EN"
 "http://www.w3.org/TR/2001/REC-SVG-20010904/DTD/svg10.dtd">
<svg version="1.0" xmlns="http://www.w3.org/2000/svg"
 width="2048.000000pt" height="2048.000000pt" viewBox="0 0 2048.000000 2048.000000"
 preserveAspectRatio="xMidYMid meet">

<g transform="translate(0.000000,2048.000000) scale(0.100000,-0.100000)"
fill="#000000" stroke="none">
<path d="M7793 17819 c-127 -9 -220 -32 -443 -112 -342 -122 -497 -187 -750
-313 -362 -181 -575 -340 -858 -639 -47 -49 -131 -137 -187 -195 -260 -268
-406 -451 -563 -710 -122 -202 -198 -364 -359 -760 -52 -129 -115 -284 -140
-345 -257 -635 -363 -965 -442 -1375 -57 -301 -90 -511 -112 -730 -16 -157
-24 -1138 -10 -1290 49 -549 90 -841 145 -1031 117 -402 146 -507 146 -521 0
-18 -9 -20 -130 -38 -233 -35 -404 -90 -593 -194 -121 -66 -612 -409 -842
-590 -344 -269 -564 -484 -600 -587 -20 -55 -19 -81 5 -174 28 -109 55 -152
130 -208 99 -74 421 -276 545 -342 61 -32 160 -86 220 -120 162 -91 214 -119
385 -208 135 -70 308 -162 447 -239 24 -12 42 -27 40 -33 -3 -9 -159 -115
-351 -238 -144 -92 -282 -201 -522 -413 -192 -170 -307 -290 -462 -484 -313
-391 -401 -501 -457 -570 -289 -354 -295 -363 -295 -452 0 -68 20 -108 92
-190 75 -83 105 -100 223 -124 139 -28 505 -26 725 4 809 111 1154 140 1745
149 380 5 452 4 461 -8 7 -8 35 -58 63 -111 58 -112 233 -363 355 -512 185
-224 394 -396 791 -648 294 -187 908 -483 1175 -566 36 -12 103 -35 150 -52
260 -97 462 -133 1045 -185 94 -9 233 -25 310 -36 77 -11 185 -27 240 -35 55
-8 174 -21 264 -29 90 -8 180 -19 200 -24 71 -18 279 -41 483 -52 245 -14 486
-7 958 30 226 18 324 34 570 92 390 93 522 130 842 235 194 63 396 129 448
145 214 69 336 117 555 222 127 60 277 129 335 153 201 85 420 201 671 357 58
36 129 72 157 80 64 20 90 33 125 66 59 54 83 135 62 215 -7 28 -12 52 -10 54
2 3 56 -3 335 -37 41 -5 127 -14 190 -21 63 -6 144 -15 180 -20 273 -38 389
-45 920 -60 270 -8 356 -14 445 -31 118 -22 209 -34 347 -45 81 -6 90 -5 140
19 37 19 71 48 111 96 96 116 99 134 67 358 -81 546 -167 957 -253 1208 -107
311 -242 576 -385 754 -23 30 -41 58 -40 63 2 6 64 44 138 85 284 157 434 245
519 302 104 70 445 323 586 436 55 44 117 93 137 108 46 34 85 98 94 155 9 58
-29 196 -75 273 -113 185 -344 448 -506 575 -185 144 -411 261 -663 343 -155
50 -173 58 -168 76 3 11 29 90 58 175 51 148 82 244 114 355 13 46 87 387 104
480 4 22 31 153 59 290 170 822 220 1087 311 1650 22 138 75 408 116 600 42
193 84 397 95 455 10 58 32 179 49 270 59 320 101 641 120 915 5 83 16 213 25
290 18 168 35 598 35 895 0 118 5 314 11 435 5 121 10 306 10 410 0 105 4 214
10 243 15 76 -3 143 -53 198 -46 50 -162 122 -215 134 -80 19 -317 -17 -728
-108 -99 -22 -256 -57 -348 -77 -459 -100 -816 -255 -1447 -628 -563 -333
-820 -527 -1195 -902 -499 -500 -976 -1063 -1179 -1393 -38 -62 -73 -112 -78
-112 -12 0 -247 219 -578 539 -458 444 -590 569 -700 663 -179 153 -397 311
-510 368 -74 38 -217 80 -266 79 -21 0 -54 -6 -71 -12 -51 -19 -172 -118 -198
-162 -23 -39 -47 -122 -65 -230 -5 -27 -18 -99 -29 -160 -28 -157 -44 -372
-36 -500 11 -185 34 -391 56 -498 12 -56 25 -120 29 -142 26 -142 136 -458
314 -905 36 -91 66 -172 66 -180 0 -9 -46 -54 -102 -100 -57 -47 -194 -176
-306 -288 l-202 -202 -36 77 c-35 75 -66 143 -104 228 -85 190 -198 540 -280
865 -42 167 -80 302 -143 510 -19 63 -45 156 -57 205 -41 171 -112 391 -207
645 -152 405 -179 488 -233 692 -28 106 -64 243 -80 303 -16 61 -50 196 -75
300 -25 105 -74 282 -109 395 -35 113 -83 268 -107 345 -23 77 -60 182 -82
234 -21 52 -49 139 -61 195 -31 136 -71 272 -111 381 -18 50 -45 149 -60 220
-40 193 -82 284 -211 446 -47 59 -64 72 -146 112 -108 53 -125 56 -275 46z
m7335 -2708 c0 -64 47 -154 126 -238 66 -71 604 -524 711 -598 39 -27 99 -72
135 -101 124 -99 406 -274 600 -373 104 -53 165 -86 310 -166 101 -55 260
-117 301 -117 19 0 47 5 63 11 16 7 30 10 33 8 5 -5 -32 -248 -56 -372 -11
-55 -22 -120 -26 -145 -13 -91 -52 -284 -130 -645 -59 -268 -71 -327 -80 -390
-8 -59 -23 -152 -35 -217 -19 -111 -30 -174 -45 -278 -9 -58 -23 -136 -30
-175 -8 -38 -24 -124 -36 -190 -30 -169 -30 -169 -94 -480 -32 -154 -61 -298
-65 -320 -4 -22 -13 -62 -18 -90 -43 -199 -105 -499 -112 -540 -38 -201 -45
-229 -132 -500 -55 -173 -121 -329 -168 -395 -49 -69 -63 -160 -38 -244 19
-62 89 -127 163 -150 33 -10 89 -31 125 -46 68 -30 144 -56 245 -85 330 -95
612 -280 821 -539 81 -100 92 -120 74 -142 -21 -25 -466 -355 -560 -416 -47
-30 -143 -87 -215 -128 -666 -374 -631 -349 -678 -490 -38 -114 -40 -134 -23
-193 16 -54 54 -108 183 -256 162 -185 311 -502 401 -851 31 -117 97 -444 127
-625 9 -55 21 -123 27 -152 11 -51 6 -89 -10 -79 -5 3 -61 14 -125 26 -95 16
-207 23 -594 35 -263 9 -505 20 -538 25 -33 5 -125 16 -205 25 -314 34 -543
61 -680 80 -124 18 -193 29 -355 56 -233 39 -391 60 -480 62 -106 2 -150 -15
-208 -84 -76 -88 -72 -208 9 -298 56 -62 92 -74 300 -95 82 -8 161 -19 174
-24 24 -9 23 -10 -25 -38 -28 -16 -77 -46 -110 -67 -182 -114 -452 -261 -520
-283 -44 -14 -147 -62 -541 -250 -93 -44 -140 -61 -784 -273 -399 -131 -470
-151 -960 -265 -126 -29 -223 -41 -475 -61 -447 -34 -589 -39 -753 -27 -86 7
-185 12 -220 12 -63 0 -306 35 -325 47 -6 3 -69 9 -141 14 -72 4 -207 19 -301
33 -231 36 -461 63 -635 76 -80 6 -172 15 -205 20 -33 5 -128 18 -211 29 -186
24 -271 45 -466 114 -84 30 -178 62 -208 72 -132 44 -476 205 -755 355 -259
139 -561 339 -729 484 -33 28 -99 95 -147 149 -91 103 -305 395 -296 404 3 3
124 7 269 9 145 3 282 10 306 16 85 21 172 134 172 223 0 48 -40 133 -80 169
-63 57 -112 66 -323 61 -100 -3 -281 -7 -402 -10 -121 -3 -492 -10 -825 -15
-590 -9 -819 -21 -1115 -56 -71 -8 -186 -21 -255 -29 -69 -8 -215 -26 -325
-41 -398 -51 -542 -64 -558 -48 -3 3 49 73 116 156 67 83 174 217 237 297 63
81 149 187 190 236 191 230 581 570 848 741 51 32 148 96 215 141 225 151 224
151 343 173 118 23 165 46 207 102 46 63 59 145 33 217 -7 19 -41 67 -75 107
-55 63 -79 81 -180 135 -64 34 -188 101 -276 149 -193 106 -263 143 -465 247
-85 44 -231 123 -325 175 -93 52 -215 119 -270 148 -77 41 -367 216 -395 238
-19 15 402 358 656 535 38 27 121 85 184 129 218 154 291 200 373 238 157 72
308 106 527 119 l115 7 49 -30 c57 -35 141 -46 201 -26 83 28 147 118 147 209
-1 57 -13 92 -55 151 -49 67 -62 101 -102 260 -20 80 -47 181 -61 225 -126
420 -144 498 -174 780 -11 105 -28 251 -37 325 -15 116 -17 212 -16 685 2 538
9 702 39 915 47 337 129 728 200 960 32 102 131 382 154 435 5 11 37 92 71
180 34 88 90 228 124 310 35 83 89 215 120 295 32 80 60 147 61 149 2 2 21
-14 41 -35 52 -54 243 -189 326 -230 85 -43 170 -74 317 -115 126 -35 152 -42
315 -89 61 -18 141 -38 179 -46 111 -22 403 -37 619 -32 212 6 206 5 377 66
152 55 316 103 530 158 74 19 164 44 200 56 104 34 453 187 476 209 26 24 25
26 59 -106 13 -49 31 -115 39 -145 9 -30 23 -86 32 -125 27 -117 106 -356 207
-625 145 -387 167 -454 221 -670 37 -146 52 -197 98 -340 21 -69 62 -212 89
-318 160 -625 254 -893 466 -1318 l95 -192 -50 -76 c-39 -60 -52 -90 -58 -134
-14 -99 -10 -194 8 -232 9 -19 23 -51 31 -70 78 -194 411 -506 711 -665 159
-84 415 -183 570 -219 214 -51 310 -62 614 -72 116 -4 212 -9 212 -12 0 -2
-17 -25 -38 -51 -96 -115 -145 -193 -168 -269 -28 -90 -30 -138 -9 -189 21
-50 41 -71 97 -99 117 -59 231 -4 369 177 91 120 164 198 273 294 202 175 313
254 467 331 130 65 189 78 354 78 133 1 145 -1 234 -32 213 -74 465 -237 602
-390 156 -174 311 -472 373 -717 46 -181 59 -307 53 -545 -8 -345 -48 -490
-198 -733 -195 -314 -648 -673 -989 -786 -83 -27 -136 -70 -166 -135 -24 -52
-33 -149 -15 -160 5 -3 12 -21 15 -41 14 -74 94 -125 198 -125 137 0 524 193
758 379 277 220 474 429 602 642 194 321 257 566 257 1009 1 187 -15 410 -32
460 -3 8 -13 51 -22 95 -77 364 -309 793 -557 1030 -237 228 -513 392 -796
475 -110 32 -174 40 -312 41 -230 1 -369 -33 -585 -141 -80 -40 -245 -144
-316 -199 l-26 -20 -42 31 c-65 48 -127 57 -411 63 -526 12 -674 36 -975 162
-143 60 -208 94 -305 161 -106 73 -181 135 -256 214 -84 88 -114 129 -114 158
0 13 42 64 118 143 65 67 168 181 229 252 126 149 229 249 433 423 219 187
235 202 252 252 26 74 38 137 38 194 0 51 -7 75 -58 186 -47 104 -223 566
-298 781 -46 134 -83 291 -109 469 -21 135 -31 522 -17 615 22 141 33 200 41
208 9 9 162 -97 296 -208 107 -87 416 -376 655 -610 177 -174 406 -394 480
-461 30 -27 118 -108 195 -180 77 -71 185 -170 240 -219 55 -48 152 -136 215
-194 63 -58 135 -125 161 -148 57 -53 104 -73 169 -73 87 0 162 46 202 124 29
54 30 145 3 201 -11 23 -83 103 -169 187 l-149 147 53 93 c99 173 168 268 397
555 153 190 267 318 554 623 259 274 495 496 694 650 57 45 294 210 301 210 1
0 2 -22 2 -49z"/>
<path d="M7298 10995 c-94 -16 -198 -49 -258 -83 -146 -83 -336 -281 -370
-385 -24 -75 13 -157 72 -157 37 0 65 30 79 85 22 87 204 267 329 326 69 33
144 49 268 56 98 5 115 9 137 29 32 30 33 73 2 102 -46 43 -118 51 -259 27z"/>
<path d="M13341 10997 c-45 -16 -76 -57 -67 -91 13 -52 37 -63 159 -69 174
-10 235 -29 355 -111 116 -78 242 -229 242 -289 0 -26 48 -67 78 -67 77 0 101
108 46 210 -42 78 -192 231 -289 295 -95 63 -190 99 -320 120 -107 18 -158 18
-204 2z"/>
<path d="M7522 10509 c-390 -28 -905 -336 -1177 -703 -207 -281 -353 -614
-411 -941 -27 -150 -35 -260 -35 -452 1 -464 74 -726 297 -1073 69 -107 164
-219 295 -346 280 -272 588 -474 888 -583 181 -66 305 -25 346 114 30 104 3
202 -72 264 -20 17 -72 42 -114 56 -42 14 -114 45 -160 69 -350 180 -670 465
-835 741 -87 146 -130 260 -166 435 -18 89 -18 549 0 645 65 342 202 642 400
872 142 164 386 326 615 406 88 31 98 32 237 31 155 -1 194 -8 304 -56 146
-64 272 -149 481 -327 123 -104 194 -177 271 -278 78 -103 178 -201 228 -224
64 -29 122 -25 186 14 62 36 100 96 100 156 0 43 -27 156 -47 195 -43 84 -232
307 -351 414 -315 282 -596 460 -837 530 -126 37 -288 52 -443 41z"/>
<path d="M7862 9520 c-67 -10 -182 -65 -257 -122 -111 -84 -215 -226 -305
-413 -70 -147 -104 -301 -122 -552 -20 -284 8 -567 82 -823 12 -41 25 -88 30
-105 34 -125 105 -272 158 -327 26 -28 116 -68 152 -68 11 0 35 -14 55 -31 20
-18 62 -47 93 -67 208 -126 430 -144 623 -51 335 162 439 436 439 1164 0 543
-72 882 -231 1080 -105 133 -218 223 -352 282 -77 34 -89 37 -197 39 -63 2
-139 -1 -168 -6z m-257 -1127 c50 -8 103 -22 119 -31 62 -36 85 -136 46 -200
-42 -69 -137 -86 -314 -57 -77 12 -94 18 -123 47 -112 109 -23 280 137 261 25
-2 86 -11 135 -20z"/>
<path d="M12700 9516 c-192 -55 -411 -240 -506 -428 -120 -236 -175 -661 -152
-1168 22 -486 108 -740 296 -875 160 -115 312 -159 479 -137 127 16 281 86
378 171 20 17 44 31 55 31 39 0 127 41 156 72 70 75 141 252 208 523 50 199
59 283 59 545 0 424 -48 628 -209 892 -31 51 -79 119 -106 151 -101 115 -258
210 -379 227 -90 13 -226 11 -279 -4z m795 -1124 c42 -24 78 -96 71 -146 -10
-79 -65 -124 -173 -142 -172 -28 -271 -10 -313 58 -42 69 -17 168 52 204 40
21 251 55 298 48 19 -3 49 -13 65 -22z"/>
<path d="M9788 5888 c-60 -9 -89 -21 -120 -53 -50 -49 -49 -133 2 -183 52 -53
121 -70 302 -78 246 -10 318 11 349 103 27 82 -19 159 -112 188 -60 19 -344
35 -421 23z"/>
<path d="M8084 4893 c-43 -9 -84 -65 -95 -132 -10 -55 -9 -70 10 -128 32 -96
84 -204 136 -283 108 -163 375 -365 587 -445 42 -16 50 -24 76 -79 43 -90 133
-204 289 -362 257 -262 460 -360 773 -371 229 -8 404 49 604 196 87 65 264
230 310 289 100 131 176 269 176 321 0 40 10 47 80 60 237 47 380 123 579 306
51 48 115 133 183 245 41 67 30 145 -27 200 -34 33 -41 35 -100 35 -82 0 -101
-14 -185 -137 -139 -204 -304 -306 -560 -348 -108 -18 -432 -19 -493 -1 -69
20 -134 83 -223 216 -121 183 -201 238 -296 206 -43 -15 -66 -36 -164 -151
-159 -186 -239 -240 -449 -306 -141 -44 -157 -47 -265 -48 -140 -1 -210 19
-345 99 -199 119 -310 246 -385 445 -50 130 -127 192 -216 173z m1899 -652
c76 -114 213 -233 312 -270 61 -23 216 -51 283 -51 23 0 42 -3 42 -6 0 -24
-107 -158 -192 -240 -174 -167 -273 -227 -425 -258 -69 -14 -98 -15 -175 -7
-223 25 -323 80 -529 287 -78 79 -139 148 -137 155 2 6 42 22 88 34 328 86
455 152 630 329 35 36 67 66 71 66 3 0 18 -18 32 -39z"/>
</g>
</svg>
